<svg width="32.000000" height="12.780273" viewBox="0 0 32 12.7803" fill="none" xmlns="http://www.w3.org/2000/svg" xmlns:xlink="http://www.w3.org/1999/xlink">
	<desc>
			Created with Pixso.
	</desc>
	<defs/>
	<path id="Vector" d="M26.73 0.46L31.53 5.26L31.68 5.44L31.79 5.62L31.84 5.72L31.9 5.85L31.94 5.97L31.99 6.21L32 6.39L31.99 6.53L31.96 6.72L31.91 6.89L31.84 7.07L31.76 7.23L31.64 7.39L31.53 7.53L26.73 12.33C26.42 12.62 26.02 12.78 25.6 12.78C25.18 12.77 24.78 12.6 24.48 12.31C24.19 12.01 24.02 11.61 24.01 11.19C24.01 10.77 24.17 10.37 24.46 10.06L26.53 7.99L10.26 7.99L6.73 11.53C6.43 11.83 6.02 11.99 5.59 11.99C5.17 11.99 4.76 11.83 4.46 11.53L0.46 7.53C0.16 7.23 0 6.82 0 6.39C0 5.97 0.16 5.56 0.46 5.26L4.46 1.26C4.76 0.96 5.17 0.79 5.59 0.79C6.02 0.79 6.43 0.96 6.73 1.26L10.26 4.79L26.53 4.79L24.46 2.73C24.19 2.45 24.02 2.08 24 1.7C23.97 1.31 24.09 0.92 24.33 0.61L24.46 0.46C24.76 0.16 25.17 0 25.6 0C26.02 0 26.43 0.16 26.73 0.46Z" fill="#5A6FA8" fill-opacity="1.000000" fill-rule="nonzero"/>
</svg>
