<svg width="30.352051" height="30.350098" viewBox="0 0 30.3521 30.3501" fill="none" xmlns="http://www.w3.org/2000/svg" xmlns:xlink="http://www.w3.org/1999/xlink">
	<desc>
			Created with Pixso.
	</desc>
	<defs/>
	<path id="Union" d="M19.998 0.296875L30.0552 10.354C30.4512 10.75 30.4512 11.3726 30.0552 11.7686C29.6592 12.1646 29.0371 12.1646 28.6411 11.7686L28.4321 11.5596L21.978 18.0137L19.311 25.125Q19.2925 25.1753 19.2686 25.2227Q19.2446 25.27 19.2158 25.3154Q19.187 25.3599 19.1538 25.4014L19.1533 25.4014Q19.1201 25.4429 19.082 25.481L16.3394 28.2236Q16.1929 28.3701 16.0161 28.4434Q15.8394 28.5166 15.6318 28.5166Q15.4248 28.5166 15.248 28.4434Q15.0713 28.3701 14.9248 28.2236L9.23291 22.5317L1.71143 30.0532C1.31543 30.4492 0.692871 30.4492 0.296875 30.0532C-0.0991211 29.6572 -0.0991211 29.0352 0.296875 28.6392L7.81836 21.1177L2.125 15.4238Q1.97852 15.2773 1.90527 15.1006Q1.83203 14.9238 1.83203 14.7168Q1.83203 14.5098 1.90527 14.333Q1.97852 14.1562 2.125 14.0098L4.86768 11.2666Q4.90576 11.229 4.94727 11.1953Q4.98828 11.1621 5.03369 11.1333Q5.07861 11.104 5.12598 11.0801L5.12598 11.0801Q5.17383 11.0562 5.22363 11.0376L12.3354 8.37061L18.7896 1.9165L18.584 1.71143C18.188 1.31543 18.188 0.692871 18.584 0.296875C18.98 -0.0991211 19.6021 -0.0991211 19.998 0.296875ZM20.2036 3.33105L13.5962 9.93799Q13.5586 9.97607 13.5171 10.0093L13.5166 10.0098Q13.4756 10.043 13.4307 10.0718Q13.3857 10.1006 13.3379 10.1245Q13.2905 10.1484 13.2402 10.1675L6.12891 12.834L4.24609 14.7168L15.6318 26.1025L17.5146 24.2197L20.1816 17.1084Q20.2002 17.0586 20.2241 17.0107Q20.248 16.9634 20.2769 16.918Q20.3062 16.873 20.3394 16.832Q20.3726 16.7905 20.4106 16.7524L27.0181 10.145L20.2036 3.33105Z" clip-rule="evenodd" fill="#5A6FA8" fill-opacity="1.000000" fill-rule="evenodd"/>
</svg>
