<svg width="34.507812" height="33.672852" viewBox="0 0 34.5078 33.6729" fill="none" xmlns="http://www.w3.org/2000/svg" xmlns:xlink="http://www.w3.org/1999/xlink">
	<desc>
			Created with Pixso.
	</desc>
	<defs/>
	<path id="Vector" d="M31.57 16.42C31.57 13.35 30.64 10.35 28.9 7.82C27.16 5.3 24.69 3.36 21.82 2.26C18.96 1.16 15.83 0.96 12.84 1.69C9.86 2.41 7.17 4.02 5.12 6.31C3.07 8.59 1.77 11.45 1.38 14.49C0.99 17.53 1.53 20.62 2.93 23.35C4.34 26.08 6.54 28.32 9.24 29.77C11.94 31.23 15.02 31.82 18.07 31.48M11.36 13.05L11.37 13.05M21.46 13.05L21.48 13.05M12.2 21.47C12.82 22.06 13.55 22.52 14.36 22.81C15.16 23.09 16.02 23.21 16.87 23.14M32.43 28.07C32.96 27.53 33.25 26.8 33.25 26.04C33.25 25.28 32.96 24.56 32.44 24.01C32.18 23.74 31.88 23.53 31.54 23.38C31.2 23.24 30.83 23.16 30.46 23.16C30.09 23.16 29.73 23.24 29.39 23.38C29.05 23.52 28.74 23.73 28.49 24L28.2 24.29L27.92 24C27.66 23.73 27.36 23.52 27.02 23.38C26.68 23.23 26.32 23.16 25.95 23.16C25.58 23.16 25.21 23.23 24.87 23.37C24.53 23.52 24.23 23.73 23.97 23.99C23.44 24.54 23.15 25.27 23.15 26.02C23.15 26.78 23.44 27.51 23.96 28.06L28.19 32.42L32.43 28.07Z" stroke="#5A6FA8" stroke-opacity="1.000000" stroke-width="2.500000" stroke-linejoin="round" stroke-linecap="round"/>
</svg>
