<svg width="67.481934" height="69.328369" viewBox="0 0 67.4819 69.3284" fill="none" xmlns="http://www.w3.org/2000/svg" xmlns:xlink="http://www.w3.org/1999/xlink">
	<desc>
			Created with Pixso.
	</desc>
	<defs/>
	<path id="Subtract" d="M0 29.3046C0.826172 28.4108 1.76709 27.6793 2.82324 27.11Q4.59033 26.1743 6.46094 25.8644Q7.38721 25.7109 8.33887 25.7109C10.3477 25.7109 12.0625 26.1306 13.4839 26.9701Q14.6484 27.6324 15.5088 28.5731Q16.2236 29.3544 16.728 30.3276C17.5005 31.7266 17.8867 33.3276 17.8867 35.1307C17.8867 35.4728 17.8716 35.8302 17.8408 36.2034C17.8096 36.5453 17.748 36.8562 17.6553 37.136L3.84326 37.136Q3.88965 42.1724 5.60449 44.4106C6.77881 45.8718 8.50879 46.6024 10.7954 46.6024C12.3403 46.6024 13.5918 46.3538 14.5498 45.8563C15.5078 45.3589 16.4038 44.6283 17.2383 43.6646L17.7017 44.0842C16.7437 45.7941 15.4614 47.1309 13.8545 48.0946C12.2788 49.0583 10.3784 49.5403 8.15381 49.5403C5.95996 49.5403 4.01318 49.074 2.31348 48.1412C2.3042 48.1357 2.29443 48.1302 2.28467 48.1248C7.50732 60.5835 19.7607 69.3284 34.0439 69.3284C47.9248 69.3284 59.8887 61.0695 65.3452 49.1692L62.9453 49.3071L62.5283 46.5559C61.5088 47.3953 60.3965 48.1102 59.1914 48.7009C58.0171 49.2605 56.6265 49.5404 55.02 49.5404C53.8149 49.5404 52.7021 49.3071 51.6826 48.8408C50.6938 48.3745 49.9058 47.6284 49.3188 46.6025Q48.4844 45.017 48.5308 42.4521L48.6699 30.4675C48.6699 29.7526 48.5464 29.2396 48.2993 28.9287C48.0522 28.6178 47.6655 28.4001 47.1406 28.2759L46.5845 28.0894L46.5845 27.6229L54.8809 25.9908L55.3442 26.4572L55.1123 33.079L55.1123 44.3175C55.1123 45.3123 55.3906 46.0428 55.9468 46.5093C56.5337 46.9756 57.2603 47.2087 58.125 47.2087C58.9902 47.2087 59.7627 47.0844 60.4429 46.8357C61.1226 46.5869 61.8022 46.2139 62.4819 45.7164L62.6675 30.5142C62.6675 29.7992 62.5591 29.3018 62.3428 29.022C62.127 28.7111 61.7251 28.4934 61.1377 28.3691L60.6743 28.2292L60.6743 27.7628L67.4819 26.2756C63.7539 11.1841 50.1973 0 34.0439 0C16.8276 0 2.56055 12.705 0 29.3046ZM30.0225 49.5403C28.1997 49.5403 26.562 49.1361 25.1099 48.3279Q24.8687 48.1886 24.6387 48.0333Q22.7876 46.785 21.6333 44.5039Q20.3818 41.8926 20.3818 37.8354Q20.3818 33.7318 21.8188 31.0737C22.7769 29.2706 24.0435 27.9338 25.6196 27.0634C27.1953 26.1617 28.9102 25.7109 30.7642 25.7109C31.8457 25.7109 32.8809 25.8198 33.8696 26.0374C34.8584 26.255 35.7393 26.5814 36.5117 27.0167L36.5117 20.9545C36.5117 20.3016 36.4033 19.8197 36.187 19.5088C36.0015 19.198 35.5845 18.9803 34.9355 18.856L34.0552 18.6694L34.0552 18.2031L42.4907 16.1512L43.0005 16.5709L42.8149 23.0995L42.8149 45.903C42.8149 46.5247 42.9233 47.0377 43.1396 47.4418C43.356 47.8149 43.7573 48.0791 44.3447 48.2346L44.7617 48.3745L44.7617 48.8408L36.8359 49.3538L36.4189 47.675C35.5845 48.2346 34.6265 48.6853 33.5454 49.0273C32.4946 49.3693 31.3203 49.5403 30.0225 49.5403ZM5.88232 27.483C6.53125 26.9233 7.30371 26.6436 8.2002 26.6436Q9.36279 26.6436 10.1553 27.1853Q10.9741 27.7448 11.3979 28.882Q12.2324 31.1204 11.769 36.2034L3.84326 36.2034C3.87402 33.6852 4.05957 31.7421 4.39941 30.3743Q4.95557 28.2758 5.88232 27.483ZM32.7109 47.8149C34.0088 47.8149 35.1982 47.4263 36.2798 46.649L36.2798 28.1359C35.1367 27.3898 33.9624 27.0167 32.7573 27.0167Q32.3135 27.0167 31.896 27.1205Q30.2183 27.5374 28.9565 29.6282Q27.3809 32.1929 27.3809 37.7422Q27.3809 43.2915 28.8638 45.5765Q29.8135 47.0095 31.124 47.5251Q31.8604 47.8149 32.7109 47.8149Z" clip-rule="evenodd" fill="#000000" fill-opacity="1.000000" fill-rule="evenodd"/>
</svg>
