<svg width="34.003906" height="32.241699" viewBox="0 0 34.0039 32.2417" fill="none" xmlns="http://www.w3.org/2000/svg" xmlns:xlink="http://www.w3.org/1999/xlink">
	<desc>
			Created with Pixso.
	</desc>
	<defs/>
	<path id="Vector" d="M22.53 3.17C23.04 2.54 23.68 2.02 24.39 1.65C25.12 1.28 25.9 1.06 26.71 1.01C27.52 0.96 28.33 1.07 29.09 1.34C29.86 1.62 30.55 2.05 31.14 2.6C31.73 3.16 32.2 3.83 32.52 4.58C32.84 5.32 33 6.12 32.99 6.93C32.99 7.75 32.81 8.55 32.49 9.29C32.16 10.03 31.68 10.69 31.08 11.24C13.27 25.74 3.8 32.43 2.68 31.31C1.56 30.19 8.17 20.81 22.53 3.17ZM27.1 6.89L25.42 8.57M26.26 7.73C22.33 3.24 20.36 1 17.84 1C15.31 1 14.47 2.68 14.47 4.36C14.47 11.1 28.21 18.52 24.57 22.89C22.8 25.03 18.91 25.05 14.89 24.25M7.29 21.92C4.95 20.97 1 18.68 1 16.15M30.47 11.94L33 14.47" stroke="#5A6FA8" stroke-opacity="1.000000" stroke-width="2.000000" stroke-linejoin="round" stroke-linecap="round"/>
</svg>
