<svg width="30.444336" height="30.444336" viewBox="0 0 30.4443 30.4443" fill="none" xmlns="http://www.w3.org/2000/svg" xmlns:xlink="http://www.w3.org/1999/xlink">
	<desc>
			Created with Pixso.
	</desc>
	<defs>
		<clipPath id="clip25_276">
			<rect id="Frame" rx="0.000000" width="41.666668" height="41.666668" transform="translate(-5.611328 -5.611328)" fill="white" fill-opacity="0"/>
		</clipPath>
	</defs>
	<path id="Union" d="M2.80664 0.333496C2.27002 0.556152 1.7793 0.889648 1.33447 1.33447C0.889648 1.7793 0.556152 2.27002 0.333496 2.80664L0.333496 2.80664C0.111328 3.34375 0 3.92676 0 4.55566L0 25.8887C0 26.5181 0.111328 27.1006 0.333496 27.6377L0.333496 27.6377L0.333496 27.6377C0.556152 28.1748 0.889648 28.6655 1.33447 29.1104C1.77881 29.5547 2.27002 29.8887 2.80664 30.1108L2.80664 30.1108C3.34375 30.3335 3.92676 30.4443 4.55566 30.4443L25.8887 30.4443C26.5181 30.4443 27.1006 30.3335 27.6377 30.1108C28.1748 29.8887 28.6655 29.5547 29.1104 29.1104C29.5547 28.6655 29.8887 28.1748 30.1108 27.6377C30.3335 27.1006 30.4443 26.5181 30.4443 25.8887L30.4443 4.55566C30.4443 3.92676 30.3335 3.34375 30.1108 2.80664L30.1108 2.80664C29.8887 2.27002 29.5547 1.7793 29.1104 1.33447C28.6655 0.889648 28.1748 0.556152 27.6377 0.333496C27.1006 0.111328 26.5181 0 25.8887 0L4.55566 0C3.92676 0 3.34375 0.111328 2.80664 0.333496L2.80664 0.333496ZM2 16.2222L2 25.8887C2 26.2417 2.0625 26.5688 2.18701 26.8701C2.31201 27.1709 2.49902 27.4463 2.74854 27.6958C2.99805 27.9453 3.27344 28.1323 3.57471 28.2573L3.57471 28.2573C3.87549 28.3818 4.20264 28.4443 4.55566 28.4443L14.2222 28.4443L14.2222 25C14.2222 24.8745 14.2344 24.752 14.2583 24.6313L14.2583 24.6299C14.2822 24.5098 14.3184 24.3926 14.3657 24.2769C14.4141 24.1616 14.4722 24.0527 14.54 23.9502C14.6084 23.8481 14.687 23.7529 14.7754 23.6641C14.8638 23.5757 14.9595 23.4976 15.0615 23.4292C15.1636 23.3608 15.2725 23.3027 15.3882 23.2549C15.5039 23.207 15.6221 23.1709 15.7422 23.147L15.7427 23.147L15.7427 23.147C15.8628 23.123 15.9858 23.1108 16.1108 23.1108C16.2212 23.1108 16.3296 23.1006 16.436 23.0796L16.436 23.0791C16.5425 23.0581 16.647 23.0264 16.749 22.9844C16.8511 22.9419 16.9473 22.8906 17.0371 22.8306L17.0371 22.8306L17.0371 22.8306C17.1274 22.77 17.2114 22.7012 17.2896 22.623C17.3677 22.5449 17.437 22.4604 17.4971 22.3706C17.5571 22.2803 17.6084 22.1841 17.6509 22.082C17.6934 21.98 17.7251 21.876 17.7461 21.7695L17.7461 21.7695L17.7461 21.7695C17.7671 21.6631 17.7778 21.5547 17.7778 21.4443C17.7778 21.334 17.7671 21.2261 17.7461 21.1196L17.7461 21.1191C17.7251 21.0127 17.6934 20.9087 17.6509 20.8066C17.6084 20.7046 17.5571 20.6084 17.4971 20.5186L17.4971 20.5181L17.4971 20.5181C17.437 20.4282 17.3677 20.3438 17.2896 20.2661C17.2114 20.188 17.1274 20.1187 17.0371 20.0586L17.0371 20.0586C16.9473 19.998 16.8511 19.9468 16.749 19.9048C16.647 19.8623 16.5425 19.8306 16.436 19.8096L16.4355 19.8091C16.3296 19.7881 16.2212 19.7778 16.1108 19.7778C15.9858 19.7778 15.8628 19.7656 15.7427 19.7417C15.6221 19.7178 15.5039 19.6816 15.3882 19.6338C15.2725 19.5859 15.1636 19.5278 15.0615 19.4595L15.061 19.4595C14.959 19.3911 14.8638 19.313 14.7754 19.2246C14.687 19.1357 14.6084 19.0405 14.54 18.9385L14.54 18.9385C14.4722 18.8364 14.4141 18.7275 14.3657 18.6118C14.3179 18.4961 14.2822 18.3779 14.2583 18.2573L14.2583 18.2573C14.2344 18.1367 14.2222 18.0142 14.2222 17.8887L14.2222 16.2222L12.665 16.2222C12.6592 16.4268 12.6362 16.6284 12.5967 16.8267C12.5503 17.0605 12.4805 17.2896 12.3877 17.5142C12.2944 17.7388 12.1816 17.9502 12.0493 18.1484C11.917 18.3467 11.7646 18.5317 11.5928 18.7036C11.4209 18.8755 11.2358 19.0278 11.0376 19.1602C10.8394 19.293 10.6279 19.4058 10.4033 19.4985C10.1787 19.5918 9.94922 19.6616 9.71533 19.708C9.48145 19.7544 9.24316 19.7778 9 19.7778C8.75684 19.7778 8.51855 19.7544 8.28467 19.708C8.05078 19.6616 7.82129 19.5918 7.59668 19.4985C7.37207 19.4058 7.16064 19.293 6.9624 19.1602C6.76416 19.0278 6.5791 18.8755 6.40723 18.7036C6.23535 18.5317 6.08301 18.3467 5.95068 18.1484C5.81836 17.9502 5.70557 17.7388 5.6123 17.5142C5.51953 17.2896 5.44971 17.0605 5.40332 16.8267C5.36377 16.6284 5.34082 16.4268 5.33496 16.2222L2 16.2222ZM14.2222 14.2222L12.5557 14.2222C12.4302 14.2222 12.3076 14.2344 12.187 14.2583C12.0664 14.2822 11.9482 14.3179 11.8325 14.3657C11.7168 14.4141 11.6079 14.4722 11.5059 14.54C11.4038 14.6084 11.3086 14.687 11.2197 14.7754C11.1313 14.8638 11.0527 14.9595 10.9849 15.0615C10.9165 15.1636 10.8584 15.2725 10.8105 15.3882C10.7627 15.5039 10.7266 15.6221 10.7026 15.7427C10.6787 15.8628 10.6665 15.9858 10.6665 16.1108C10.6665 16.2217 10.6562 16.3301 10.6348 16.4365C10.6138 16.5425 10.582 16.647 10.54 16.749C10.4976 16.8511 10.4463 16.9473 10.3862 17.0371C10.3257 17.1274 10.2568 17.2114 10.1787 17.2896C10.1006 17.3677 10.0161 17.437 9.92627 17.4971C9.83594 17.5571 9.73975 17.6084 9.6377 17.6509C9.53564 17.6934 9.43164 17.7251 9.3252 17.7461C9.21875 17.7671 9.11035 17.7778 9 17.7778C8.88965 17.7778 8.78125 17.7671 8.6748 17.7461C8.56836 17.7251 8.46436 17.6934 8.3623 17.6509C8.26025 17.6084 8.16406 17.5571 8.07373 17.4971C7.98389 17.437 7.89941 17.3677 7.82129 17.2896C7.74316 17.2114 7.67432 17.1274 7.61377 17.0371C7.55371 16.9473 7.50244 16.8511 7.45996 16.749C7.41797 16.647 7.38623 16.5425 7.36523 16.436C7.34375 16.3301 7.3335 16.2217 7.3335 16.1108C7.3335 15.9858 7.32129 15.8628 7.29736 15.7427C7.27344 15.6221 7.2373 15.5039 7.18945 15.3882C7.1416 15.2725 7.0835 15.1636 7.01514 15.0615C6.94727 14.9595 6.86865 14.8638 6.78027 14.7754C6.69141 14.687 6.59619 14.6084 6.49414 14.54C6.39209 14.4722 6.2832 14.4141 6.16748 14.3657C6.05176 14.3179 5.93359 14.2822 5.81299 14.2583C5.69238 14.2344 5.56982 14.2222 5.44434 14.2222L2 14.2222L2 4.55566C2 4.20264 2.0625 3.87549 2.18701 3.57471L2.18701 3.57471C2.31201 3.27344 2.49902 2.99805 2.74854 2.74854C2.99805 2.49902 3.27344 2.31201 3.57471 2.18701L3.57471 2.18701L3.57471 2.18701L3.57471 2.18701C3.87549 2.0625 4.20264 2 4.55566 2L14.2222 2L14.2222 5.33496C14.0171 5.34082 13.8159 5.36377 13.6177 5.40332L13.6177 5.40332L13.6177 5.40332C13.3838 5.44971 13.1548 5.51953 12.9302 5.6123C12.7056 5.70557 12.4941 5.81836 12.2959 5.95068C12.0977 6.08301 11.9121 6.23535 11.7402 6.40723C11.5684 6.5791 11.4165 6.76416 11.2837 6.9624L11.2837 6.9624L11.2837 6.9624L11.2837 6.96289L11.2837 6.96289C11.1514 7.16113 11.0386 7.37256 10.9458 7.59668C10.8525 7.82129 10.7827 8.05029 10.7363 8.28369L10.7363 8.28467C10.6899 8.51855 10.6665 8.75684 10.6665 9C10.6665 9.24316 10.6899 9.48145 10.7363 9.71533L10.7363 9.71533C10.7827 9.94922 10.8525 10.1787 10.9458 10.4033C11.0386 10.6279 11.1514 10.8394 11.2837 11.0376L11.2837 11.0376C11.4165 11.2358 11.5684 11.4209 11.7402 11.5928C11.9121 11.7646 12.0977 11.917 12.2959 12.0493L12.2959 12.0493L12.2959 12.0493C12.4941 12.1816 12.7056 12.2944 12.9302 12.3877C13.1543 12.4805 13.3833 12.5503 13.6172 12.5967L13.6172 12.5967L13.6177 12.5967L13.6177 12.5967C13.8159 12.6362 14.0171 12.6592 14.2222 12.665L14.2222 14.2222ZM17.7793 14.2222L16.2222 14.2222L16.2222 12.5557C16.2222 12.4302 16.21 12.3076 16.186 12.187L16.186 12.187L16.186 12.187C16.1621 12.0664 16.126 11.9482 16.0781 11.8325C16.0303 11.7168 15.9722 11.6079 15.9043 11.5059L15.9038 11.5059L15.9038 11.5059L15.9038 11.5059C15.8359 11.4038 15.7573 11.3086 15.6689 11.2197C15.5801 11.1313 15.4849 11.0527 15.3828 10.9849L15.3828 10.9849L15.3823 10.9844L15.3823 10.9844C15.2803 10.916 15.1714 10.8584 15.0562 10.8105C14.9404 10.7627 14.8223 10.7266 14.7017 10.7026L14.7017 10.7026C14.5811 10.6787 14.4585 10.6665 14.333 10.6665C14.2227 10.6665 14.1147 10.6562 14.0088 10.6353L14.0078 10.6348L14.0078 10.6348C13.9019 10.6138 13.7974 10.582 13.6953 10.54C13.5933 10.4976 13.4971 10.4463 13.4072 10.3862L13.4072 10.3862C13.3169 10.3257 13.2329 10.2568 13.1548 10.1787C13.0767 10.1006 13.0073 10.0161 12.9473 9.92627L12.9473 9.92627L12.9473 9.92627C12.8867 9.83594 12.8354 9.73975 12.7935 9.6377C12.751 9.53564 12.7192 9.43164 12.6982 9.3252L12.6982 9.3252L12.6982 9.3252L12.6982 9.3252C12.6772 9.21875 12.6665 9.11035 12.6665 9C12.6665 8.88965 12.6772 8.78125 12.6982 8.67529L12.6982 8.6748L12.6982 8.6748C12.7192 8.56836 12.751 8.46436 12.7935 8.3623C12.8354 8.26025 12.8867 8.16406 12.9473 8.07373C13.0073 7.98389 13.0767 7.89941 13.1548 7.82129C13.2329 7.74316 13.3169 7.67432 13.4072 7.61377L13.4072 7.61377L13.4072 7.61377C13.4971 7.55371 13.5933 7.50244 13.6953 7.45996C13.7974 7.41797 13.9014 7.38623 14.0073 7.36523L14.0078 7.36523L14.0078 7.36523L14.0078 7.36523C14.1143 7.34375 14.2227 7.3335 14.333 7.3335C14.4585 7.3335 14.5811 7.32129 14.7017 7.29736C14.8223 7.27344 14.9404 7.2373 15.0562 7.18945C15.1719 7.1416 15.2808 7.0835 15.3828 7.01514C15.4849 6.94727 15.5801 6.86865 15.6689 6.78027C15.7573 6.69141 15.8354 6.59619 15.9038 6.49463L15.9038 6.49463L15.9038 6.49414L15.9043 6.49414L15.9043 6.49414L15.9043 6.49414C15.9722 6.3916 16.0303 6.28271 16.0781 6.16748C16.126 6.05176 16.1621 5.93359 16.186 5.81299L16.186 5.81299C16.21 5.69238 16.2222 5.56982 16.2222 5.44434L16.2222 2L25.8887 2C26.2417 2 26.5688 2.0625 26.8696 2.18701L26.8701 2.18701L26.8701 2.18701C27.1709 2.31201 27.4463 2.49902 27.6958 2.74854C27.9453 2.99805 28.1328 3.27344 28.2573 3.57471L28.2573 3.57471C28.3818 3.87598 28.4443 4.20264 28.4443 4.55566L28.4443 14.2222L25.1094 14.2222C25.1035 14.0171 25.0806 13.8159 25.0415 13.6177L25.0415 13.6177C24.9946 13.3838 24.9248 13.1548 24.832 12.9302C24.7388 12.7056 24.626 12.4941 24.4937 12.2959L24.4937 12.2959C24.3613 12.0977 24.209 11.9126 24.0371 11.7402C23.8652 11.5684 23.6802 11.4165 23.4819 11.2837L23.4819 11.2837C23.2837 11.1514 23.0723 11.0386 22.8477 10.9458C22.623 10.8525 22.3936 10.7827 22.1602 10.7363L22.1597 10.7363C21.9258 10.6899 21.6875 10.6665 21.4443 10.6665C21.2012 10.6665 20.9629 10.6899 20.729 10.7363L20.729 10.7363C20.4951 10.7827 20.2656 10.8525 20.041 10.9458C19.8164 11.0386 19.605 11.1514 19.4067 11.2837C19.2085 11.4165 19.0234 11.5684 18.8516 11.7402C18.6797 11.9126 18.5273 12.0977 18.395 12.2959L18.395 12.2959C18.2627 12.4941 18.1499 12.7056 18.0566 12.9302C17.9639 13.1548 17.894 13.3838 17.8477 13.6177L17.8477 13.6177C17.8081 13.8159 17.7852 14.0171 17.7793 14.2222ZM16.2222 28.4443L16.2222 25.1094C16.4268 25.1035 16.6279 25.0806 16.8262 25.0415L16.8267 25.0415C17.0605 24.9946 17.2896 24.9248 17.5142 24.832C17.7388 24.7388 17.9502 24.626 18.1484 24.4937L18.1484 24.4937L18.1484 24.4937C18.3467 24.3613 18.5317 24.209 18.7036 24.0371C18.8755 23.8652 19.0278 23.6802 19.1602 23.4819L19.1602 23.4819C19.293 23.2837 19.4058 23.0723 19.4985 22.8477C19.5918 22.623 19.6616 22.394 19.708 22.1602L19.708 22.1602L19.708 22.1597C19.7544 21.9258 19.7778 21.6875 19.7778 21.4443C19.7778 21.2012 19.7544 20.9629 19.708 20.729L19.708 20.729C19.6616 20.4951 19.5918 20.2656 19.4985 20.041C19.4058 19.8164 19.293 19.605 19.1602 19.4067C19.0278 19.2085 18.8755 19.0234 18.7036 18.8516C18.5317 18.6797 18.3467 18.5273 18.1484 18.395C17.9502 18.2627 17.7388 18.1499 17.5142 18.0566C17.29 17.9639 17.0615 17.8945 16.8281 17.8477L16.8267 17.8477L16.8267 17.8477C16.6284 17.8081 16.4268 17.7852 16.2222 17.7793L16.2222 16.2222L17.8887 16.2222C18.0142 16.2222 18.1372 16.21 18.2573 16.186C18.3779 16.1621 18.4961 16.126 18.6118 16.0781C18.7275 16.0303 18.8364 15.9722 18.9385 15.9038C19.0405 15.8359 19.1357 15.7573 19.2246 15.6689C19.313 15.5801 19.3916 15.4849 19.4595 15.3828L19.4595 15.3828C19.5278 15.2808 19.5859 15.1719 19.6338 15.0562C19.6816 14.9404 19.7178 14.8223 19.7417 14.7017C19.7656 14.5811 19.7778 14.4585 19.7778 14.333C19.7778 14.2227 19.7881 14.1143 19.8096 14.0078L19.8096 14.0078C19.8306 13.9019 19.8623 13.7974 19.9048 13.6953C19.9468 13.5933 19.998 13.4971 20.0581 13.4072C20.1187 13.3169 20.1875 13.2329 20.2661 13.1548C20.3442 13.0767 20.4282 13.0073 20.5181 12.9473C20.6084 12.8867 20.7046 12.8354 20.8066 12.7935C20.9087 12.751 21.0127 12.7192 21.1191 12.6982C21.2256 12.6772 21.334 12.6665 21.4443 12.6665C21.5547 12.6665 21.6631 12.6772 21.7695 12.6982L21.7695 12.6982C21.876 12.7192 21.98 12.751 22.082 12.7935C22.1841 12.8354 22.2803 12.8867 22.3706 12.9473C22.4604 13.0073 22.5449 13.0767 22.623 13.1548C22.7012 13.2329 22.77 13.3169 22.8306 13.4072C22.8906 13.4971 22.9419 13.5933 22.9844 13.6953C23.0264 13.7974 23.0581 13.9019 23.0791 14.0078L23.0791 14.0078C23.1006 14.1143 23.1108 14.2227 23.1108 14.333C23.1108 14.4585 23.123 14.5811 23.147 14.7017C23.1709 14.8223 23.207 14.9404 23.2549 15.0562C23.3027 15.1719 23.3608 15.2808 23.4292 15.3828L23.4292 15.3828C23.4976 15.4849 23.5757 15.5801 23.6641 15.6689C23.7529 15.7573 23.8481 15.8359 23.9502 15.9038C24.0522 15.9722 24.1616 16.0303 24.2769 16.0781C24.3926 16.126 24.5107 16.1621 24.6313 16.186C24.752 16.21 24.8745 16.2222 25 16.2222L28.4443 16.2222L28.4443 25.8887C28.4443 26.2417 28.3823 26.5684 28.2573 26.8696L28.2573 26.8701L28.2573 26.8701L28.2573 26.8701C28.1323 27.1714 27.9453 27.4463 27.6958 27.6958C27.4463 27.9453 27.1714 28.1323 26.8701 28.2573L26.8701 28.2573L26.8701 28.2573L26.8696 28.2573C26.5684 28.3823 26.2417 28.4443 25.8887 28.4443L16.2222 28.4443Z" clip-rule="evenodd" fill="#5A6FA8" fill-opacity="1.000000" fill-rule="evenodd"/>
</svg>
