<svg width="24.000000" height="24.000000" viewBox="0 0 24 24" fill="none" xmlns="http://www.w3.org/2000/svg" xmlns:xlink="http://www.w3.org/1999/xlink">
	<desc>
			Created with Pixso.
	</desc>
	<defs>
		<clipPath id="clip24_1285">
			<rect id="Frame" rx="0.000000" width="23.000000" height="23.000000" transform="translate(0.500000 0.500000) rotate(0.000000)" fill="white" fill-opacity="0"/>
		</clipPath>
	</defs>
	<rect id="Frame" rx="0.000000" width="23.000000" height="23.000000" transform="translate(0.500000 0.500000) rotate(0.000000)" fill="#FFFFFF" fill-opacity="0"/>
	<g clip-path="url(#clip24_1285)">
		<path id="Vector" d="M18 3C18.65 3 19.3 3.12 19.91 3.38C20.52 3.63 21.07 4 21.53 4.46C22 4.92 22.36 5.47 22.61 6.08C22.87 6.69 23 7.34 23 8L23 16C23 16.65 22.87 17.3 22.61 17.91C22.36 18.52 22 19.07 21.53 19.53C21.07 20 20.52 20.36 19.91 20.61C19.3 20.87 18.65 21 18 21L6 21C5.34 21 4.69 20.87 4.08 20.61C3.47 20.36 2.92 20 2.46 19.53C1.52 18.59 1 17.32 1 16L1 8C1 6.67 1.52 5.4 2.46 4.46C3.4 3.52 4.67 3 6 3L18 3ZM9 9L9 15C9 15.17 9.04 15.35 9.13 15.5C9.22 15.65 9.35 15.78 9.5 15.86C9.66 15.95 9.83 16 10.01 15.99C10.18 15.99 10.36 15.94 10.51 15.85L15.51 12.85C15.66 12.76 15.78 12.64 15.86 12.49C15.95 12.34 15.99 12.17 15.99 12C15.99 11.82 15.95 11.65 15.86 11.5C15.78 11.35 15.66 11.23 15.51 11.14L10.51 8.14C10.36 8.05 10.18 8 10.01 8C9.83 7.99 9.66 8.04 9.5 8.13C9.35 8.21 9.22 8.34 9.13 8.49C9.04 8.64 9 8.82 9 9Z" fill="#FF0000" fill-opacity="1.000000" fill-rule="nonzero"/>
	</g>
</svg>
